<mxfile host="app.diagrams.net" agent="Mozilla/5.0 (Windows NT 10.0; Win64; x64) AppleWebKit/537.36 (KHTML, like Gecko) Chrome/135.0.0.0 Safari/537.36 Edg/135.0.0.0" version="26.2.14">
  <diagram name="Página-1" id="Nvuye6jkqribHArD-Cfs">
    <mxGraphModel dx="1243" dy="420" grid="1" gridSize="10" guides="1" tooltips="1" connect="1" arrows="1" fold="1" page="1" pageScale="1" pageWidth="827" pageHeight="1169" math="0" shadow="0">
      <root>
        <mxCell id="0" />
        <mxCell id="1" parent="0" />
        <mxCell id="julPsBWwCISY8Ut_5P0z-1" value="Cliente" style="shape=umlActor;verticalLabelPosition=bottom;verticalAlign=top;html=1;outlineConnect=0;" vertex="1" parent="1">
          <mxGeometry x="40" y="65" width="30" height="60" as="geometry" />
        </mxCell>
        <mxCell id="julPsBWwCISY8Ut_5P0z-2" value="Prestador" style="shape=umlActor;verticalLabelPosition=bottom;verticalAlign=top;html=1;outlineConnect=0;" vertex="1" parent="1">
          <mxGeometry x="555" y="80" width="30" height="60" as="geometry" />
        </mxCell>
        <mxCell id="julPsBWwCISY8Ut_5P0z-3" value="Administrador" style="shape=umlActor;verticalLabelPosition=bottom;verticalAlign=top;html=1;outlineConnect=0;" vertex="1" parent="1">
          <mxGeometry x="306" y="290" width="30" height="60" as="geometry" />
        </mxCell>
        <mxCell id="julPsBWwCISY8Ut_5P0z-5" value="Cadastrar-se" style="ellipse;whiteSpace=wrap;html=1;" vertex="1" parent="1">
          <mxGeometry x="269" y="110" width="91" height="40" as="geometry" />
        </mxCell>
        <mxCell id="julPsBWwCISY8Ut_5P0z-6" value="Solicitar Serviço" style="ellipse;whiteSpace=wrap;html=1;" vertex="1" parent="1">
          <mxGeometry x="279" y="10" width="80" height="30" as="geometry" />
        </mxCell>
        <mxCell id="julPsBWwCISY8Ut_5P0z-7" value="" style="endArrow=none;html=1;rounded=0;" edge="1" parent="1" source="julPsBWwCISY8Ut_5P0z-1" target="julPsBWwCISY8Ut_5P0z-5">
          <mxGeometry width="50" height="50" relative="1" as="geometry">
            <mxPoint x="225" y="270" as="sourcePoint" />
            <mxPoint x="275" y="220" as="targetPoint" />
          </mxGeometry>
        </mxCell>
        <mxCell id="julPsBWwCISY8Ut_5P0z-8" value="" style="endArrow=none;html=1;rounded=0;" edge="1" parent="1" source="julPsBWwCISY8Ut_5P0z-1" target="julPsBWwCISY8Ut_5P0z-6">
          <mxGeometry width="50" height="50" relative="1" as="geometry">
            <mxPoint x="325" y="130" as="sourcePoint" />
            <mxPoint x="395" y="130" as="targetPoint" />
          </mxGeometry>
        </mxCell>
        <mxCell id="julPsBWwCISY8Ut_5P0z-9" value="Reclamar de Serviço" style="ellipse;whiteSpace=wrap;html=1;" vertex="1" parent="1">
          <mxGeometry x="150" y="230" width="80" height="30" as="geometry" />
        </mxCell>
        <mxCell id="julPsBWwCISY8Ut_5P0z-10" value="" style="endArrow=none;html=1;rounded=0;entryX=0;entryY=0.5;entryDx=0;entryDy=0;" edge="1" parent="1" source="julPsBWwCISY8Ut_5P0z-1" target="julPsBWwCISY8Ut_5P0z-9">
          <mxGeometry width="50" height="50" relative="1" as="geometry">
            <mxPoint x="195" y="150" as="sourcePoint" />
            <mxPoint x="301" y="173" as="targetPoint" />
          </mxGeometry>
        </mxCell>
        <mxCell id="julPsBWwCISY8Ut_5P0z-11" value="Avaliar Prestador" style="ellipse;whiteSpace=wrap;html=1;" vertex="1" parent="1">
          <mxGeometry x="150" y="170" width="80" height="30" as="geometry" />
        </mxCell>
        <mxCell id="julPsBWwCISY8Ut_5P0z-12" value="" style="endArrow=none;html=1;rounded=0;" edge="1" parent="1" source="julPsBWwCISY8Ut_5P0z-1" target="julPsBWwCISY8Ut_5P0z-11">
          <mxGeometry width="50" height="50" relative="1" as="geometry">
            <mxPoint x="331" y="156" as="sourcePoint" />
            <mxPoint x="437" y="200" as="targetPoint" />
          </mxGeometry>
        </mxCell>
        <mxCell id="julPsBWwCISY8Ut_5P0z-14" value="" style="endArrow=none;html=1;rounded=0;entryX=1;entryY=0.5;entryDx=0;entryDy=0;" edge="1" parent="1" source="julPsBWwCISY8Ut_5P0z-2" target="julPsBWwCISY8Ut_5P0z-5">
          <mxGeometry width="50" height="50" relative="1" as="geometry">
            <mxPoint x="510" y="114.63003096440025" as="sourcePoint" />
            <mxPoint x="529.2400519513185" y="113.59205936894307" as="targetPoint" />
          </mxGeometry>
        </mxCell>
        <mxCell id="julPsBWwCISY8Ut_5P0z-15" value="Realizar Serviço" style="ellipse;whiteSpace=wrap;html=1;" vertex="1" parent="1">
          <mxGeometry x="650" y="95" width="80" height="30" as="geometry" />
        </mxCell>
        <mxCell id="julPsBWwCISY8Ut_5P0z-16" value="" style="endArrow=none;html=1;rounded=0;" edge="1" parent="1" source="julPsBWwCISY8Ut_5P0z-2" target="julPsBWwCISY8Ut_5P0z-15">
          <mxGeometry width="50" height="50" relative="1" as="geometry">
            <mxPoint x="396" y="95" as="sourcePoint" />
            <mxPoint x="447" y="140" as="targetPoint" />
          </mxGeometry>
        </mxCell>
        <mxCell id="julPsBWwCISY8Ut_5P0z-17" value="Verificar Reclamações" style="ellipse;whiteSpace=wrap;html=1;" vertex="1" parent="1">
          <mxGeometry x="283" y="410" width="76" height="40" as="geometry" />
        </mxCell>
        <mxCell id="julPsBWwCISY8Ut_5P0z-18" value="" style="endArrow=none;html=1;rounded=0;" edge="1" parent="1" target="julPsBWwCISY8Ut_5P0z-17">
          <mxGeometry width="50" height="50" relative="1" as="geometry">
            <mxPoint x="321" y="370" as="sourcePoint" />
            <mxPoint x="421" y="350" as="targetPoint" />
          </mxGeometry>
        </mxCell>
        <mxCell id="julPsBWwCISY8Ut_5P0z-19" value="Processar Pagamento" style="ellipse;whiteSpace=wrap;html=1;" vertex="1" parent="1">
          <mxGeometry x="150" y="290" width="76" height="40" as="geometry" />
        </mxCell>
        <mxCell id="julPsBWwCISY8Ut_5P0z-21" value="Efetuar Estorno" style="ellipse;whiteSpace=wrap;html=1;" vertex="1" parent="1">
          <mxGeometry x="150" y="380" width="76" height="40" as="geometry" />
        </mxCell>
        <mxCell id="julPsBWwCISY8Ut_5P0z-30" value="" style="endArrow=none;html=1;rounded=0;" edge="1" parent="1" source="julPsBWwCISY8Ut_5P0z-6" target="julPsBWwCISY8Ut_5P0z-2">
          <mxGeometry width="50" height="50" relative="1" as="geometry">
            <mxPoint x="420" y="70" as="sourcePoint" />
            <mxPoint x="470" y="20" as="targetPoint" />
          </mxGeometry>
        </mxCell>
        <mxCell id="julPsBWwCISY8Ut_5P0z-50" value="" style="endArrow=none;html=1;rounded=0;exitX=-0.034;exitY=0.403;exitDx=0;exitDy=0;exitPerimeter=0;" edge="1" parent="1" source="julPsBWwCISY8Ut_5P0z-19">
          <mxGeometry width="50" height="50" relative="1" as="geometry">
            <mxPoint x="54.579999999999984" y="210" as="sourcePoint" />
            <mxPoint x="70" y="150" as="targetPoint" />
          </mxGeometry>
        </mxCell>
        <mxCell id="julPsBWwCISY8Ut_5P0z-53" value="Efetuar&lt;br&gt;Pagamento" style="ellipse;whiteSpace=wrap;html=1;" vertex="1" parent="1">
          <mxGeometry x="460" y="290" width="76" height="40" as="geometry" />
        </mxCell>
        <mxCell id="julPsBWwCISY8Ut_5P0z-56" value="" style="endArrow=none;html=1;rounded=0;exitX=1;exitY=0.5;exitDx=0;exitDy=0;" edge="1" parent="1" source="julPsBWwCISY8Ut_5P0z-53">
          <mxGeometry width="50" height="50" relative="1" as="geometry">
            <mxPoint x="360" y="450" as="sourcePoint" />
            <mxPoint x="540" y="160" as="targetPoint" />
          </mxGeometry>
        </mxCell>
        <mxCell id="julPsBWwCISY8Ut_5P0z-60" value="" style="endArrow=none;html=1;rounded=0;exitX=1;exitY=0.5;exitDx=0;exitDy=0;" edge="1" parent="1" source="julPsBWwCISY8Ut_5P0z-19">
          <mxGeometry width="50" height="50" relative="1" as="geometry">
            <mxPoint x="283" y="310" as="sourcePoint" />
            <mxPoint x="290" y="310" as="targetPoint" />
          </mxGeometry>
        </mxCell>
        <mxCell id="julPsBWwCISY8Ut_5P0z-61" value="" style="endArrow=none;html=1;rounded=0;entryX=1;entryY=0.5;entryDx=0;entryDy=0;" edge="1" parent="1" target="julPsBWwCISY8Ut_5P0z-21">
          <mxGeometry width="50" height="50" relative="1" as="geometry">
            <mxPoint x="290" y="340" as="sourcePoint" />
            <mxPoint x="423" y="310" as="targetPoint" />
          </mxGeometry>
        </mxCell>
        <mxCell id="julPsBWwCISY8Ut_5P0z-63" value="" style="endArrow=none;html=1;rounded=0;" edge="1" parent="1" target="julPsBWwCISY8Ut_5P0z-53">
          <mxGeometry width="50" height="50" relative="1" as="geometry">
            <mxPoint x="350" y="310" as="sourcePoint" />
            <mxPoint x="460" y="289" as="targetPoint" />
          </mxGeometry>
        </mxCell>
        <mxCell id="julPsBWwCISY8Ut_5P0z-64" value="" style="endArrow=none;html=1;rounded=0;exitX=0;exitY=0.5;exitDx=0;exitDy=0;" edge="1" parent="1" source="julPsBWwCISY8Ut_5P0z-21">
          <mxGeometry width="50" height="50" relative="1" as="geometry">
            <mxPoint x="127" y="313" as="sourcePoint" />
            <mxPoint x="50" y="157" as="targetPoint" />
          </mxGeometry>
        </mxCell>
      </root>
    </mxGraphModel>
  </diagram>
</mxfile>
